<?xml version="1.0" encoding="UTF-8"?>
<svg id="Ebene_2" data-name="Ebene 2" xmlns="http://www.w3.org/2000/svg" viewBox="0 0 255.5 34.21">
  <defs>
    <style>
      .cls-1 {
        fill: #fff;
      }
    </style>
  </defs>
  <g id="Ebene_1" data-name="Ebene 1">
    <g>
      <g>
        <path class="cls-1" d="M62.81,23.48c0-.96-.32-1.71-.97-2.24-.65-.54-1.78-1.09-3.4-1.66s-2.95-1.13-3.98-1.66c-3.35-1.73-5.03-4.11-5.03-7.14,0-1.51.42-2.84,1.25-3.99.84-1.15,2.02-2.05,3.54-2.69,1.53-.64,3.24-.96,5.15-.96s3.53.35,5,1.05c1.47.7,2.62,1.69,3.44,2.98.82,1.29,1.23,2.76,1.23,4.42h-6.22c0-1.11-.32-1.97-.97-2.58-.65-.61-1.52-.92-2.62-.92s-1.99.26-2.64.78c-.65.52-.97,1.18-.97,1.97,0,.7.36,1.33,1.07,1.9s1.96,1.15,3.75,1.76c1.79.6,3.26,1.26,4.4,1.95,2.79,1.7,4.19,4.03,4.19,7.01,0,2.38-.85,4.25-2.56,5.61-1.71,1.36-4.04,2.04-7.02,2.04-2.1,0-3.99-.4-5.69-1.19-1.7-.79-2.98-1.87-3.84-3.25-.86-1.38-1.29-2.96-1.29-4.76h6.25c0,1.46.36,2.53,1.07,3.22.72.69,1.88,1.04,3.49,1.04,1.03,0,1.84-.23,2.44-.7.6-.47.9-1.12.9-1.97Z"/>
        <path class="cls-1" d="M93.16,21.5c-.08,1.89-.57,3.57-1.46,5.02-.89,1.45-2.13,2.58-3.74,3.37s-3.44,1.2-5.5,1.2c-3.4,0-6.07-1.17-8.03-3.5-1.95-2.33-2.93-5.62-2.93-9.87v-1.35c0-2.67.44-5,1.32-7,.88-2,2.15-3.55,3.81-4.64,1.66-1.09,3.58-1.64,5.75-1.64,3.14,0,5.66.87,7.57,2.61,1.91,1.74,2.99,4.14,3.25,7.19h-6.22c-.05-1.66-.44-2.85-1.19-3.57s-1.88-1.08-3.41-1.08-2.69.61-3.41,1.83c-.72,1.22-1.1,3.17-1.14,5.85v1.93c0,2.9.35,4.98,1.04,6.23.69,1.25,1.89,1.87,3.58,1.87,1.43,0,2.53-.36,3.29-1.07s1.16-1.84,1.21-3.38h6.2Z"/>
        <path class="cls-1" d="M110.8,25.63h-8.54l-1.49,5.09h-6.66l9.48-27.22h5.86l9.56,27.22h-6.7l-1.51-5.09ZM103.75,20.56h5.56l-2.79-9.44-2.77,9.44Z"/>
        <path class="cls-1" d="M127.12,25.67h10.85v5.05h-17.09V3.49h6.23v22.17Z"/>
        <path class="cls-1" d="M147.25,30.72h-6.22V3.49h6.22v27.22Z"/>
        <path class="cls-1" d="M173.18,30.72h-6.2l-9.16-16.94v16.94h-6.23V3.49h6.23l9.15,16.94V3.49h6.22v27.22Z"/>
        <path class="cls-1" d="M198.29,27.35c-.96,1.12-2.36,2.03-4.21,2.71s-3.87,1.03-6.07,1.03c-3.39,0-6.09-1.09-8.12-3.27-2.03-2.18-3.11-5.22-3.25-9.11l-.02-2.36c0-2.68.45-5.02,1.35-7.02.9-2,2.19-3.54,3.86-4.62,1.68-1.08,3.61-1.62,5.82-1.62,3.22,0,5.72.78,7.5,2.33,1.78,1.55,2.82,3.87,3.12,6.95h-6c-.21-1.52-.67-2.61-1.39-3.25s-1.72-.97-3.02-.97c-1.56,0-2.77.7-3.62,2.09-.85,1.4-1.28,3.39-1.3,5.98v1.65c0,2.72.44,4.76,1.32,6.12.88,1.37,2.27,2.05,4.17,2.05,1.62,0,2.83-.38,3.62-1.14v-4.23h-4.33v-4.51h10.57v11.18Z"/>
        <path class="cls-1" d="M231.26,3.49v17.82c0,2.02-.41,3.77-1.23,5.24-.82,1.48-1.99,2.6-3.52,3.37-1.53.77-3.33,1.16-5.42,1.16-3.15,0-5.63-.86-7.44-2.58-1.81-1.72-2.74-4.08-2.77-7.07V3.49h6.27v18.08c.07,2.98,1.39,4.47,3.94,4.47,1.29,0,2.27-.37,2.93-1.12.66-.75.99-1.96.99-3.65V3.49h6.23Z"/>
        <path class="cls-1" d="M241.38,21.48v9.24h-6.23V3.49h10.32c1.98,0,3.73.38,5.25,1.15,1.52.77,2.7,1.86,3.53,3.27.83,1.42,1.25,3.02,1.25,4.81,0,2.65-.9,4.78-2.71,6.37-1.81,1.59-4.28,2.38-7.43,2.38h-3.98ZM241.38,16.41h4.08c1.21,0,2.13-.32,2.76-.95.63-.64.95-1.53.95-2.69,0-1.27-.33-2.29-.98-3.05-.65-.76-1.54-1.15-2.66-1.16h-4.16v7.85Z"/>
      </g>
      <g>
        <path class="cls-1" d="M3.62,30.84c.17-.01.35-.03.54-.06.11-.02.22-.03.33-.06.19-.04.38-.07.58-.13.2-.06.35-.1.5-.16.21-.08.38-.14.55-.22l.28-.13c.16-.08.32-.17.48-.26.07-.04.14-.08.22-.13.2-.12.41-.26.61-.4l.06-.04c.23-.17.47-.36.7-.55l.06-.05c.1-.08.19-.16.29-.25l.08-.08c.21-.2.43-.42.65-.65.18-.19.33-.36.47-.54.16-.2.33-.41.5-.63l.04-.05c.1-.14.22-.29.33-.45l.32-.46c.15-.23.31-.47.46-.71l.03-.06c.06-.09.12-.19.17-.28.2-.33.4-.68.59-1.04l.02-.03c.2-.37.39-.73.57-1.11l.12-.24c.15-.31.3-.63.46-.96l2.3-4.75c.15-.29.3-.58.45-.87.1-.19.21-.38.31-.58,0,0,2.11-3.51,2.31-3.8l.3-.44c.97-1.39,2.01-2.66,3.08-3.79l.19-.2c.13-.13.26-.26.39-.39.06-.06.1-.1.15-.15.18-.18.38-.37.58-.55l.03-.03c.19-.17.38-.34.57-.51l.13-.12c.17-.14.34-.29.52-.43h0l.05-.04s.03-.02.05-.04h.01c.21-.18.43-.34.64-.5l.11-.08c.45-.33.91-.64,1.35-.92l.07-.04c.39-.25.76-.46,1.13-.67l.62-.35h0c.33-.16.64-.31.95-.45,1.35-.61,2.77-1.09,4.26-1.45H1.95C.87,0,0,.9,0,2.02v28.86l3.62-.05Z"/>
        <path class="cls-1" d="M29.56,6.2c-.19.11-.37.22-.56.34l-.1.07c-.18.12-.34.22-.49.33l-.08.06c-.19.13-.37.26-.55.4l-.08.06c-.15.11-.3.23-.45.35l-.14.11c-.16.12-.31.25-.46.38-.02.01-.04.04-.07.06-.16.14-.33.29-.5.45l-.13.12c-.13.12-.26.24-.38.36l-.11.1c-.2.19-.36.36-.52.52l-.18.19c-.32.34-.64.71-.97,1.1-.06.07-.12.15-.17.22l-.13.17c-.26.32-.51.64-.76.97-.06.08-.12.17-.18.26l-.13.19c-.23.32-.45.64-.67.96l-.29.45c-.21.33-.42.66-.62,1l-.23.39c-.22.38-.44.75-.65,1.13l-.2.37c-.21.38-.41.76-.6,1.13l-.18.35c-.19.38-.38.76-.57,1.13l-.16.33c-.21.44-.42.87-.62,1.29l-.04.08-.65,1.37c-.21.45-.43.9-.64,1.33-.1.2-.2.41-.3.61l-.36.69s-.06.11-.09.17c-.11.19-.22.4-.33.59l-.16.26s-.06.1-.09.14l-.18.29c-.12.19-.23.38-.35.56-.19.3-.4.59-.6.87l-.39.53c-.07.1-.15.2-.23.3-.13.17-.26.33-.4.49l-.11.13c-.13.15-.23.27-.34.39l-.32.35s-.07.08-.11.12c-.01.02-.04.05-.07.08l-.48.48c-.06.06-.12.11-.18.16l-.08.07c-.12.11-.24.22-.36.33l-.09.08c-.18.15-.35.29-.52.43l-.26.19c-.09.07-.19.14-.29.21-.17.12-.3.21-.43.29l-.12.08-.06.04-.39.23s-.05.03-.07.04c-.24.13-.44.24-.65.34-.07.04-.11.06-.14.07l-.16.07c-.07.03-.15.07-.23.1l-.1.04c-.08.03-.12.05-.15.06h-.01s30.22,0,30.22,0c1.07,0,1.95-.9,1.95-2.02V3.43c-3.67.17-6.87,1.08-9.73,2.77"/>
      </g>
    </g>
  </g>
</svg>